<?xml version="1.0" encoding="UTF-8"?>
<!DOCTYPE svg PUBLIC "-//W3C//DTD SVG 1.1//EN" "http://www.w3.org/Graphics/SVG/1.1/DTD/svg11.dtd">
<svg xmlns="http://www.w3.org/2000/svg" version="1.1" width="32px" height="32px" style="shape-rendering:geometricPrecision; text-rendering:geometricPrecision; image-rendering:optimizeQuality; fill-rule:evenodd; clip-rule:evenodd" xmlns:xlink="http://www.w3.org/1999/xlink">
<g><path style="opacity:1" fill="#fe816a" d="M -0.5,-0.5 C 4.83333,-0.5 10.1667,-0.5 15.5,-0.5C 15.5,3.16667 15.5,6.83333 15.5,10.5C 13.5,10.5 11.5,10.5 9.5,10.5C 9.5,9.16667 9.5,7.83333 9.5,6.5C 11.3904,6.2965 12.8904,6.96317 14,8.5C 14.5074,7.00392 14.0074,5.83726 12.5,5C 10.2884,4.21086 8.28841,4.37753 6.5,5.5C 2.32624,9.4829 2.65957,13.1496 7.5,16.5C 10.3172,17.8368 12.8172,17.1701 15,14.5C 15.8446,17.1303 15.3446,19.4636 13.5,21.5C 14.2427,22.1818 14.9094,22.8485 15.5,23.5C 11.5,23.5 7.5,23.5 3.5,23.5C 3.5,24.5 3.5,25.5 3.5,26.5C 7.5,26.5 11.5,26.5 15.5,26.5C 15.5,28.1667 15.5,29.8333 15.5,31.5C 10.1667,31.5 4.83333,31.5 -0.5,31.5C -0.5,20.8333 -0.5,10.1667 -0.5,-0.5 Z"/></g>
<g><path style="opacity:1" fill="#fefdfc" d="M 16.5,-0.5 C 21.5,-0.5 26.5,-0.5 31.5,-0.5C 31.5,10.1667 31.5,20.8333 31.5,31.5C 26.5,31.5 21.5,31.5 16.5,31.5C 16.5,29.8333 16.5,28.1667 16.5,26.5C 18.5,26.5 20.5,26.5 22.5,26.5C 22.5,25.5 22.5,24.5 22.5,23.5C 21.1667,23.5 19.8333,23.5 18.5,23.5C 18.8432,21.5168 18.1765,20.1834 16.5,19.5C 16.2053,17.2646 16.5386,15.2646 17.5,13.5C 17.8333,14.5 18.5,15.1667 19.5,15.5C 21.5,16.8333 23.5,16.8333 25.5,15.5C 24.5,15.5 23.5,15.5 22.5,15.5C 22.1796,12.1016 22.513,8.76829 23.5,5.5C 26.922,8.28965 27.5887,8.12298 25.5,5C 23.6131,4.22039 21.9464,4.38705 20.5,5.5C 18.9731,5.42702 17.9731,6.09368 17.5,7.5C 16.5269,5.0521 16.1936,2.38544 16.5,-0.5 Z"/></g>
<g><path style="opacity:1" fill="#fef7f6" d="M 6.5,5.5 C 8.11869,8.5479 9.11869,11.8812 9.5,15.5C 9.15829,16.3382 8.49162,16.6716 7.5,16.5C 2.65957,13.1496 2.32624,9.4829 6.5,5.5 Z"/></g>
<g><path style="opacity:1" fill="#fca695" d="M 20.5,5.5 C 21.9464,4.38705 23.6131,4.22039 25.5,5C 27.5887,8.12298 26.922,8.28965 23.5,5.5C 22.513,8.76829 22.1796,12.1016 22.5,15.5C 23.5,15.5 24.5,15.5 25.5,15.5C 23.5,16.8333 21.5,16.8333 19.5,15.5C 20.7773,14.3064 21.4439,12.6397 21.5,10.5C 21.4932,8.63069 21.1599,6.96402 20.5,5.5 Z"/></g>
<g><path style="opacity:1" fill="#fe8068" d="M 20.5,5.5 C 21.1599,6.96402 21.4932,8.63069 21.5,10.5C 21.4439,12.6397 20.7773,14.3064 19.5,15.5C 18.5,15.1667 17.8333,14.5 17.5,13.5C 16.1667,11.5 16.1667,9.5 17.5,7.5C 17.9731,6.09368 18.9731,5.42702 20.5,5.5 Z"/></g>
<g><path style="opacity:1" fill="#fdc8bd" d="M 15.5,-0.5 C 15.8333,-0.5 16.1667,-0.5 16.5,-0.5C 16.1936,2.38544 16.5269,5.0521 17.5,7.5C 16.1667,9.5 16.1667,11.5 17.5,13.5C 16.5386,15.2646 16.2053,17.2646 16.5,19.5C 17.9538,21.2633 17.6204,22.5967 15.5,23.5C 14.9094,22.8485 14.2427,22.1818 13.5,21.5C 15.3446,19.4636 15.8446,17.1303 15,14.5C 12.8172,17.1701 10.3172,17.8368 7.5,16.5C 8.49162,16.6716 9.15829,16.3382 9.5,15.5C 9.11869,11.8812 8.11869,8.5479 6.5,5.5C 8.28841,4.37753 10.2884,4.21086 12.5,5C 14.0074,5.83726 14.5074,7.00392 14,8.5C 12.8904,6.96317 11.3904,6.2965 9.5,6.5C 9.5,7.83333 9.5,9.16667 9.5,10.5C 11.5,10.5 13.5,10.5 15.5,10.5C 15.5,6.83333 15.5,3.16667 15.5,-0.5 Z"/></g>
<g><path style="opacity:1" fill="#fe856d" d="M 9.5,15.5 C 9.5,14.1667 9.5,12.8333 9.5,11.5C 11.288,11.2148 12.9547,11.5481 14.5,12.5C 13.5791,14.756 11.9124,15.756 9.5,15.5 Z"/></g>
<g><path style="opacity:1" fill="#fdb2a0" d="M 25.5,15.5 C 25.9081,14.3569 26.5748,13.3569 27.5,12.5C 28.6394,14.3957 27.9728,15.3957 25.5,15.5 Z"/></g>
<g><path style="opacity:1" fill="#fddcd5" d="M 16.5,19.5 C 18.1765,20.1834 18.8432,21.5168 18.5,23.5C 19.8333,23.5 21.1667,23.5 22.5,23.5C 22.5,24.5 22.5,25.5 22.5,26.5C 20.5,26.5 18.5,26.5 16.5,26.5C 16.5,28.1667 16.5,29.8333 16.5,31.5C 16.1667,31.5 15.8333,31.5 15.5,31.5C 15.5,29.8333 15.5,28.1667 15.5,26.5C 15.5,25.5 15.5,24.5 15.5,23.5C 17.6204,22.5967 17.9538,21.2633 16.5,19.5 Z"/></g>
<g><path style="opacity:1" fill="#faae9d" d="M 15.5,23.5 C 15.5,24.5 15.5,25.5 15.5,26.5C 11.5,26.5 7.5,26.5 3.5,26.5C 3.5,25.5 3.5,24.5 3.5,23.5C 7.5,23.5 11.5,23.5 15.5,23.5 Z"/></g>
<g><path style="opacity:1" fill="#facfc5" d="M 23.5,23.5 C 25.1667,23.5 26.8333,23.5 28.5,23.5C 28.5,24.5 28.5,25.5 28.5,26.5C 26.8333,26.5 25.1667,26.5 23.5,26.5C 23.5,25.5 23.5,24.5 23.5,23.5 Z"/></g>
</svg>
